<?xml version="1.0" encoding="utf-8"?>
<!-- Generator: Adobe Illustrator 23.0.1, SVG Export Plug-In . SVG Version: 6.00 Build 0)  -->
<svg version="1.1" id="Layer_1" xmlns="http://www.w3.org/2000/svg" xmlns:xlink="http://www.w3.org/1999/xlink" x="0px" y="0px"
	 viewBox="0 0 34 34" style="enable-background:new 0 0 34 34;" xml:space="preserve">
<style type="text/css">
	.st0{opacity:1.000000e-02;fill-rule:evenodd;clip-rule:evenodd;fill:#D8D8D8;enable-background:new    ;}
	.st1{fill-rule:evenodd;clip-rule:evenodd;fill:#0E54B1;}
</style>
<g>
	<path class="st0" d="M0,0h34v34H0V0z"/>
	<path class="st1" d="M22.3,19l0.5-3.1h3.1L24.8,19H22.3z M10.7,11.4l0.5,3.1H8.3l-0.7-3.3L10.7,11.4z M17.8,14.5v-2.7l3.9,0.2
		l-0.4,2.4H17.8z M17.8,16h3.3L20.7,19h-2.9V16z M12.8,14.5l-0.4-3l4,0.3v2.8H12.8z M13,16h3.3V19h-2.8L13,16z M9.3,19L8.6,16h2.8
		l0.5,3.1H9.3z M26.3,14.5H23l0.3-2.3l3.8,0.2L26.3,14.5z M23.6,27.4c-0.7,0-1.3-0.6-1.3-1.2c0-0.6,0.5-1.1,1.2-1.2h0.3
		c0.7,0.1,1.2,0.6,1.2,1.2C24.9,26.9,24.3,27.4,23.6,27.4z M11.8,27.4c-0.7,0-1.3-0.6-1.3-1.2s0.6-1.2,1.3-1.2
		c0.7,0,1.3,0.6,1.3,1.2S12.5,27.4,11.8,27.4z M26.1,20l2.8-8c0.1-0.2,0-0.5-0.1-0.6c-0.1-0.2-0.4-0.3-0.6-0.3L7.3,9.7L6.6,6.5
		C6.5,6.2,6.2,5.9,5.8,5.9h-5C0.4,5.9,0,6.3,0,6.7c0,0.4,0.4,0.7,0.8,0.7h4.4l2.8,12.5c0,0,0.1,0.2,0.1,0.3c0.3,1.7,1,3,2.1,3.8
		c-0.7,0.5-1.1,1.3-1.1,2.2c0,1.5,1.3,2.7,2.9,2.7c1.6,0,2.9-1.2,2.9-2.7c0-0.4-0.1-0.9-0.3-1.2H21c-0.2,0.4-0.3,0.8-0.3,1.2
		c0,1.5,1.3,2.7,2.9,2.7c1.6,0,2.9-1.2,2.9-2.7c0-1.5-1.3-2.7-2.9-2.7c-0.1,0-0.2,0-0.3,0H13.2c-1.4,0-2.8-0.4-3.5-3h15.7
		C25.7,20.5,26,20.3,26.1,20z"/>
</g>
</svg>
