<?xml version="1.0" encoding="utf-8"?>
<!-- Generator: Adobe Illustrator 23.0.1, SVG Export Plug-In . SVG Version: 6.00 Build 0)  -->
<svg version="1.1" id="Layer_1" xmlns="http://www.w3.org/2000/svg" xmlns:xlink="http://www.w3.org/1999/xlink" x="0px" y="0px"
	 viewBox="0 0 34 34" style="enable-background:new 0 0 34 34;" xml:space="preserve">
<style type="text/css">
	.st0{opacity:1.000000e-02;fill-rule:evenodd;clip-rule:evenodd;fill:#D8D8D8;enable-background:new    ;}
	.st1{fill-rule:evenodd;clip-rule:evenodd;fill:#0E54B1;}
</style>
<g>
	<path class="st0" d="M0,0h34v34H0V0z"/>
	<g>
		<path class="st1" d="M25.2,22.5c0,0.6,0.5,1,1,1c0.6,0,1-0.5,1-1c0-0.6-0.5-1-1-1C25.6,21.4,25.2,21.9,25.2,22.5z"/>
		<path class="st1" d="M16.9,27.3H8.3c-0.4,0-0.8-0.4-0.8-0.8c0-0.5,0.3-0.8,0.8-0.8h8.5c0.4,0,0.8,0.4,0.8,0.8
			C17.6,26.9,17.3,27.3,16.9,27.3z"/>
		<path class="st1" d="M29.7,1.7h-6.5c-1.7,0-3,1.4-3,3v1.2h1.5V4.7c0-0.8,0.7-1.5,1.5-1.5h6.5c0.8,0,1.5,0.7,1.5,1.5v19.1
			c0,0.8-0.7,1.5-1.5,1.5l-9.1,0c0.5,0.9,1.5,1.5,2.6,1.5h6.5c1.7,0,3-1.4,3-3V4.7C32.7,3.1,31.4,1.7,29.7,1.7z"/>
		<path class="st1" d="M28.2,6.7h-3.9c-0.4,0-0.8-0.4-0.8-0.8c0-0.5,0.3-0.8,0.8-0.8h3.9c0.4,0,0.8,0.4,0.8,0.8
			C29,6.4,28.6,6.7,28.2,6.7z"/>
		<path class="st1" d="M22.8,20.5c0,0.8-0.7,1.5-1.5,1.5h-17c-0.8,0-1.5-0.7-1.5-1.5v-9.9c0-0.8,0.7-1.5,1.5-1.5h17
			c0.8,0,1.5,0.7,1.5,1.5V20.5z M21.3,7.6h-17c-1.7,0-3,1.3-3,3v9.9c0,1.6,1.4,3,3,3h17c1.7,0,3-1.3,3-3v-9.9
			C24.3,8.9,23,7.6,21.3,7.6z"/>
	</g>
</g>
</svg>
