<?xml version="1.0" encoding="utf-8"?>
<!-- Generator: Adobe Illustrator 23.0.1, SVG Export Plug-In . SVG Version: 6.00 Build 0)  -->
<svg version="1.1" id="Layer_1" xmlns="http://www.w3.org/2000/svg" xmlns:xlink="http://www.w3.org/1999/xlink" x="0px" y="0px"
	 viewBox="0 0 34 34" style="enable-background:new 0 0 34 34;" xml:space="preserve">
<style type="text/css">
	.st0{opacity:1.000000e-02;fill-rule:evenodd;clip-rule:evenodd;fill:#D8D8D8;enable-background:new    ;}
	.st1{fill-rule:evenodd;clip-rule:evenodd;fill:#0E54B1;}
</style>
<g>
	<path class="st0" d="M0,0h34v34H0V0z"/>
	<path class="st1" d="M23.5,5.5c-1.9,0-3.7,0.7-5.1,2.1l-1.1,1.1l-0.2,0.2l-1.9,1.9c-0.3,0.3-0.3,0.8,0,1.1c0.2,0.1,0.4,0.2,0.6,0.2
		c0.2,0,0.4-0.1,0.6-0.2L19,9.3l0.5-0.5c1.1-1.1,2.5-1.6,3.9-1.6c1.4,0,2.8,0.5,3.8,1.5c2.1,2.1,2.1,5.6-0.1,7.7L17.1,26.4L7,16.4
		C4.9,14.2,4.8,10.8,7,8.6c1-1,2.3-1.5,3.8-1.5c1.5,0,2.9,0.6,3.9,1.6L14.9,9L16,7.8l-0.2-0.2c-1.4-1.4-3.1-2.1-5.1-2.1
		c-1.9,0-3.6,0.7-4.9,2c-2.7,2.7-2.7,7.2,0.1,9.9l9.9,9.9l0.1,0.1c0.3,0.3,0.7,0.6,1.1,0.6c0.4,0,0.8-0.2,1.1-0.5l0.1-0.1l9.9-9.9
		c2.8-2.8,2.8-7.2,0.1-9.9C27,6.2,25.3,5.5,23.5,5.5z"/>
</g>
</svg>
