<?xml version="1.0" encoding="utf-8"?>
<!-- Generator: Adobe Illustrator 23.0.1, SVG Export Plug-In . SVG Version: 6.00 Build 0)  -->
<svg version="1.1" id="Layer_1" xmlns="http://www.w3.org/2000/svg" xmlns:xlink="http://www.w3.org/1999/xlink" x="0px" y="0px"
	 viewBox="0 0 34 34" style="enable-background:new 0 0 34 34;" xml:space="preserve">
<style type="text/css">
	.st0{opacity:1.000000e-02;fill-rule:evenodd;clip-rule:evenodd;fill:#D8D8D8;enable-background:new    ;}
	.st1{fill-rule:evenodd;clip-rule:evenodd;fill:#0E54B1;}
</style>
<g>
	<path class="st0" d="M0,0h34v34H0V0z"/>
	<g>
		<path class="st1" d="M14.5,5.1L14.5,5.1L14.5,5.1l-3.9,0c-0.4,0-0.8,0.4-0.8,0.8c0,0.4,0.4,0.8,0.8,0.8h2l-3.9,3.9
			c-0.3,0.3-0.3,0.8,0,1.1c0.2,0.2,0.4,0.2,0.6,0.2c0.2,0,0.4-0.1,0.6-0.2l3.8-3.8v1.7c0,0.4,0.4,0.8,0.8,0.8c0.4,0,0.8-0.4,0.8-0.8
			V5.9C15.3,5.5,14.9,5.1,14.5,5.1z"/>
		<path class="st1" d="M5.8,25.6V5.1H4.3l0,22.1h25.5v-1.6L5.8,25.6z"/>
		<path class="st1" d="M10.1,18.8c0-0.3,0.3-0.6,0.6-0.6h1.5c0.3,0,0.6,0.3,0.6,0.6v5h1.6v-5c0-1.2-1-2.2-2.2-2.2h-1.5
			c-1.2,0-2.2,1-2.2,2.2v5h1.6V18.8z"/>
		<path class="st1" d="M17.8,13.7c0-0.3,0.3-0.6,0.6-0.6h1.5c0.3,0,0.6,0.3,0.6,0.6v9.7h1.6v-9.7c0-1.2-1-2.2-2.2-2.2h-1.5
			c-1.2,0-2.2,1-2.2,2.2v9.7h1.6V13.7z"/>
		<path class="st1" d="M25.4,7.2c0-0.3,0.3-0.6,0.6-0.6h1.5c0.3,0,0.6,0.2,0.6,0.6V23h1.6V7.2c0-1.2-1-2.1-2.2-2.1H26
			c-1.2,0-2.2,0.9-2.2,2.1V23h1.6V7.2z"/>
	</g>
</g>
</svg>
