<?xml version="1.0" encoding="utf-8"?>
<!-- Generator: Adobe Illustrator 23.0.1, SVG Export Plug-In . SVG Version: 6.00 Build 0)  -->
<svg version="1.1" id="Layer_1" xmlns="http://www.w3.org/2000/svg" xmlns:xlink="http://www.w3.org/1999/xlink" x="0px" y="0px"
	 viewBox="0 0 34 34" style="enable-background:new 0 0 34 34;" xml:space="preserve">
<style type="text/css">
	.st0{opacity:1.000000e-02;fill-rule:evenodd;clip-rule:evenodd;fill:#D8D8D8;enable-background:new    ;}
	.st1{fill-rule:evenodd;clip-rule:evenodd;fill:#0E54B1;}
</style>
<g>
	<path class="st0" d="M0,0h34v34H0V0z"/>
	<g>
		<path class="st1" d="M28.7,17c-0.2,0-0.3-0.1-0.5-0.2l-11.5-10l-11.4,10c-0.3,0.3-0.7,0.2-1-0.1c-0.3-0.3-0.2-0.7,0.1-1L16.3,5.3
			C16.6,5,17,5,17.3,5.3l11.9,10.4c0.3,0.3,0.3,0.7,0.1,1C29.1,16.9,28.9,17,28.7,17z"/>
		<path class="st1" d="M24.6,26.1h-4.9v-4.9c0-0.4-0.3-0.7-0.7-0.7h-4.4c-0.4,0-0.7,0.3-0.7,0.7v4.9H9v-8.8l7.8-7l7.8,7V26.1z
			 M25.8,16.5l-8.5-7.7c-0.3-0.2-0.7-0.2-0.9,0l-8.5,7.7c-0.1,0.1-0.2,0.3-0.2,0.5v9.8c0,0.4,0.3,0.7,0.7,0.7h7l0-5.6h3l0,5.6h7
			c0.4,0,0.7-0.3,0.7-0.7V17C26,16.8,25.9,16.6,25.8,16.5z"/>
	</g>
</g>
</svg>
