<?xml version="1.0" encoding="utf-8"?>
<!-- Generator: Adobe Illustrator 23.0.1, SVG Export Plug-In . SVG Version: 6.00 Build 0)  -->
<svg version="1.1" id="Layer_1" xmlns="http://www.w3.org/2000/svg" xmlns:xlink="http://www.w3.org/1999/xlink" x="0px" y="0px"
	 viewBox="0 0 34 34" style="enable-background:new 0 0 34 34;" xml:space="preserve">
<style type="text/css">
	.st0{opacity:1.000000e-02;fill-rule:evenodd;clip-rule:evenodd;fill:#D8D8D8;enable-background:new    ;}
	.st1{fill-rule:evenodd;clip-rule:evenodd;fill:#0E54B1;}
</style>
<g>
	<path class="st0" d="M0,0h34v34H0V0z"/>
	<g>
		<path class="st1" d="M18.8,28h-3.3c-0.4,0-0.7,0.3-0.7,0.7c0,0.4,0.3,0.7,0.7,0.7h3.3c0.4,0,0.7-0.3,0.7-0.7
			C19.6,28.3,19.2,28,18.8,28z"/>
		<path class="st1" d="M23.3,19.1c-0.3,0.3-0.7,0.7-1,1c-1.1,1-2.2,2.1-2.8,4.1H18v-6l2.3-2.3c0.3-0.3,0.3-0.8,0-1.1
			c-0.3-0.3-0.8-0.3-1.1,0l-2.1,2.1l-2.1-2.1c-0.3-0.3-0.8-0.3-1.1,0c-0.3,0.3-0.3,0.8,0,1.1l2.4,2.4v5.9h-1.7
			c-0.5-2-1.6-3.1-2.7-4.1c-0.3-0.3-0.7-0.6-1-1C10.1,18,9.7,16.7,9.7,15c0-4,3.3-7.3,7.5-7.3c4.1,0,7.5,3.3,7.5,7.3
			C24.6,16.8,24.3,18,23.3,19.1z M17.2,6.2c-4.9,0-8.9,3.9-8.9,8.8c0,2.3,0.7,3.9,1.7,5.1c1.6,1.8,3.3,2.6,3.6,5.6h7.4
			c0.3-3,2-3.8,3.6-5.6c1.1-1.3,1.7-2.8,1.7-5.1C26.1,10.1,22.1,6.2,17.2,6.2z"/>
		<path class="st1" d="M17.1,4.7c0.4,0,0.7-0.3,0.7-0.7V2c0-0.4-0.3-0.7-0.7-0.7c-0.4,0-0.7,0.3-0.7,0.7v1.9
			C16.4,4.3,16.7,4.7,17.1,4.7z"/>
		<path class="st1" d="M28.2,6c-0.3-0.3-0.8-0.3-1.1,0l-1.5,1.5c-0.3,0.3-0.3,0.8,0,1.1c0.1,0.1,0.3,0.2,0.5,0.2
			c0.2,0,0.4-0.1,0.5-0.2L28.2,7C28.5,6.7,28.5,6.3,28.2,6z"/>
		<path class="st1" d="M8.8,8.6c0.3-0.3,0.3-0.8,0-1.1L7.2,6C6.9,5.7,6.5,5.7,6.2,6C5.9,6.3,5.9,6.7,6.2,7l1.5,1.5
			C7.9,8.7,8,8.8,8.2,8.8C8.4,8.8,8.6,8.7,8.8,8.6z"/>
	</g>
</g>
</svg>
