<?xml version="1.0" encoding="utf-8"?>
<!-- Generator: Adobe Illustrator 23.0.1, SVG Export Plug-In . SVG Version: 6.00 Build 0)  -->
<svg version="1.1" id="Layer_1" xmlns="http://www.w3.org/2000/svg" xmlns:xlink="http://www.w3.org/1999/xlink" x="0px" y="0px"
	 viewBox="0 0 34 34" style="enable-background:new 0 0 34 34;" xml:space="preserve">
<style type="text/css">
	.st0{opacity:1.000000e-02;fill-rule:evenodd;clip-rule:evenodd;fill:#D8D8D8;enable-background:new    ;}
	.st1{fill-rule:evenodd;clip-rule:evenodd;fill:#0E54B1;}
</style>
<g>
	<path class="st0" d="M0,0h34v34H0V0z"/>
	<g>
		<path class="st1" d="M13.3,13.2V9.4c1.6-0.1,3.4,0,5.1,0.5l2.9,3.3H13.3z M31.4,18.5c-0.4-2.8-6.6-5.1-8.3-5.7l-3.6-4.2
			c-0.1-0.1-0.2-0.2-0.4-0.3C14,6.7,7.8,8.5,7.6,8.5c-6.2,1.4-7,5.7-7,5.9c0,0,0,0.1,0,0.2l0,2.9c-0.6,1.5-0.7,2.8-0.3,3.9
			c0.5,1.3,1.7,1.9,2.1,2c-0.1-0.3-0.1-0.6-0.1-0.9c0-0.4,0-0.7,0.1-1C2.2,21.3,2,21,1.9,20.7c-0.3-0.7-0.2-1.6,0.3-2.7
			c0.1-0.1,0.1-0.2,0.1-0.4l0-3c0.1-0.5,1-3.4,5.8-4.5c0,0,1.5-0.4,3.5-0.7v3.6h-6c-0.5,0-0.9,0.4-0.9,0.9c0,0.5,0.4,0.9,0.9,0.9
			h18.3l0.1,0c2.9,1.2,5.7,2.8,5.8,3.9l0,0.1c0,0.1,0.3,1.5-0.7,2.4l-0.2,0.1l0,0c0.1,0.3,0.1,0.7,0.1,1.1l0,0c0,0.3,0,0.5-0.1,0.8
			c0.5-0.2,1-0.5,1.4-1c0.1-0.1,0.1-0.1,0.2-0.2C31.8,20.7,31.5,18.9,31.4,18.5z"/>
		<path class="st1" d="M24.1,24.2c-1,0-1.8-0.8-1.8-1.8c0-1,0.8-1.8,1.8-1.8c1,0,1.8,0.8,1.8,1.8C25.9,23.5,25.1,24.2,24.1,24.2z
			 M7.2,24.2c-1,0-1.8-0.8-1.8-1.8c0-1,0.8-1.8,1.8-1.8c1,0,1.8,0.8,1.8,1.8C9,23.5,8.2,24.2,7.2,24.2z M24.1,19
			c-1.7,0-3.2,1.3-3.4,3h-10c-0.3-1.7-1.7-3-3.4-3c-1.9,0-3.5,1.6-3.5,3.5c0,1.9,1.6,3.5,3.5,3.5c1.5,0,2.8-1,3.3-2.3h10.3
			c0.5,1.3,1.8,2.3,3.3,2.3c1.9,0,3.5-1.6,3.5-3.5C27.6,20.5,26,19,24.1,19z"/>
	</g>
</g>
</svg>
