<?xml version="1.0" encoding="utf-8"?>
<!-- Generator: Adobe Illustrator 23.0.1, SVG Export Plug-In . SVG Version: 6.00 Build 0)  -->
<svg version="1.1" id="Layer_1" xmlns="http://www.w3.org/2000/svg" xmlns:xlink="http://www.w3.org/1999/xlink" x="0px" y="0px"
	 viewBox="0 0 34 34" style="enable-background:new 0 0 34 34;" xml:space="preserve">
<style type="text/css">
	.st0{opacity:1.000000e-02;fill-rule:evenodd;clip-rule:evenodd;fill:#D8D8D8;enable-background:new    ;}
	.st1{fill-rule:evenodd;clip-rule:evenodd;fill:#0E54B1;}
</style>
<g>
	<path class="st0" d="M0,0h34v34H0V0z"/>
	<g>
		<path class="st1" d="M12.3,11.7c0,0.6-0.5,1.1-1.1,1.1c-0.6,0-1.1-0.5-1.1-1.1c0-0.6,0.5-1.1,1.1-1.1
			C11.8,10.6,12.3,11.1,12.3,11.7z"/>
		<path class="st1" d="M19.6,10.2h-3.2c-0.4,0-0.8-0.4-0.8-0.9s0.3-0.8,0.8-0.8h3.2c0.4,0,0.8,0.4,0.8,0.8S20.1,10.2,19.6,10.2z"/>
		<path class="st1" d="M23.7,23.7c-0.5,0.3-1,0.5-1.5,0.7l0,0l0,3.6c0,0.1-0.1,0.1-0.1,0.1h-1.9c-0.1,0-0.1-0.1-0.1-0.1l0-3.1l0,0
			c-0.5,0.1-1,0.1-1.5,0.2c-0.1,0-0.2,0-0.3,0h-1.7c-0.1,0-0.2,0-0.3,0c-0.5,0-1-0.1-1.5-0.1l0,0l0,3.1c0,0.1-0.1,0.1-0.1,0.1h-1.9
			c-0.1,0-0.1-0.1-0.1-0.1v-2h0v-1.6h0c-0.5-0.2-1.1-0.5-1.5-0.7c-1.3-0.8-2.4-1.8-3.2-3L7.2,20l0,0c-0.1-0.1-0.1-0.2-0.2-0.3
			c-0.3-0.3-0.6-0.4-0.7-0.4H4.9c-0.1,0-0.3-0.2-0.4-0.3c-0.7-2.4-1.3-5.2-1.3-6.4c0.8,0.2,1.4,0.4,2,0.4c0.1,0,0.2,0,0.3,0
			c0.4,0,0.7-0.1,0.9-0.1v0c0.3-0.1,0.6-0.3,0.8-0.6l0,0l0,0c0.1-0.3,0.3-0.5,0.5-0.8c0.9-1.4,2.3-2.5,3.9-3.3l0-3.5
			c1,0.4,1.8,1.3,2.1,1.7c0,0.1,0.1,0.1,0.1,0.2l0,0l0,0c0.2,0.3,0.4,0.6,0.5,0.6C15,7.1,15.7,7,16.4,7h1.7c5.6,0,10.2,4.1,10.2,9.1
			C28.3,19.3,26.5,22.1,23.7,23.7z M32.2,10.8c-0.2-0.4-0.7-0.5-1-0.3l-2.4,1.2C26.9,8,22.8,5.5,18.1,5.5h-1.7c-0.5,0-1,0-1.5,0.1
			C14.6,5,12.9,3,10.7,3c-0.2,0-0.4,0.1-0.5,0.2C10,3.3,9.9,3.5,9.9,3.8l0,3.5c-1.7,1-3.2,2.5-4.1,4.2c-0.2,0.1-0.9,0.2-2.7-0.4
			c-0.5-0.2-0.9,0-1.2,0.4c-0.8,1,0.1,4.9,1.1,8c0.2,0.8,1,1.4,1.9,1.4h0.9c1.1,2,2.8,3.7,5,4.7v2.6c0,0.9,0.7,1.6,1.6,1.6h1.9
			c0.9,0,1.6-0.7,1.6-1.6v-1.4c0.1,0,0.2,0,0.3,0h1.7c0.1,0,0.2,0,0.3,0v1.4c0,0.9,0.7,1.6,1.6,1.6H22c0.9,0,1.6-0.7,1.6-1.6v-2.6
			c3.7-1.8,6.2-5.3,6.2-9.4c0-1.1-0.2-2.1-0.5-3l2.5-1.3C32.3,11.6,32.4,11.2,32.2,10.8z"/>
	</g>
</g>
</svg>
