<?xml version="1.0" encoding="utf-8"?>
<!-- Generator: Adobe Illustrator 23.0.1, SVG Export Plug-In . SVG Version: 6.00 Build 0)  -->
<svg version="1.1" id="Layer_1" xmlns="http://www.w3.org/2000/svg" xmlns:xlink="http://www.w3.org/1999/xlink" x="0px" y="0px"
	 viewBox="0 0 34 34" style="enable-background:new 0 0 34 34;" xml:space="preserve">
<style type="text/css">
	.st0{opacity:1.000000e-02;fill-rule:evenodd;clip-rule:evenodd;fill:#D8D8D8;enable-background:new    ;}
	.st1{fill-rule:evenodd;clip-rule:evenodd;fill:#0E54B1;}
</style>
<g>
	<path class="st0" d="M0,0h34v34H0V0z"/>
	<g>
		<path class="st1" d="M11.1,7.2c-0.5,0-0.9-0.3-0.9-0.7V4.6c0-0.4,0.4-0.7,0.9-0.7c0.5,0,0.8,0.3,0.8,0.7v1.9
			C11.9,6.9,11.5,7.2,11.1,7.2z"/>
		<path class="st1" d="M14,7.2c-0.5,0-0.9-0.3-0.9-0.7V4.6c0-0.4,0.4-0.7,0.9-0.7c0.5,0,0.8,0.3,0.8,0.7v1.9
			C14.9,6.9,14.5,7.2,14,7.2z"/>
		<path class="st1" d="M16.6,7.2c-0.5,0-0.9-0.3-0.9-0.7V4.6c0-0.4,0.4-0.7,0.9-0.7c0.5,0,0.9,0.3,0.9,0.7v1.9
			C17.4,6.9,17,7.2,16.6,7.2z"/>
		<path class="st1" d="M23.4,13.6c-0.5,0-0.9-0.3-0.9-0.7v-1.9c0-0.4,0.4-0.7,0.9-0.7c0.5,0,0.9,0.3,0.9,0.7v1.9
			C24.2,13.3,23.8,13.6,23.4,13.6z"/>
		<path class="st1" d="M15.7,12.7h5.5V11h-5.5V12.7z"/>
		<path class="st1" d="M28.7,24.8H5.8L6,23.5h22.4L28.7,24.8z M4.7,21.9l-0.9,4.4h26.8l-0.9-4.4h-1.4v-3.5h1.4v-1.5h-1.4v-4.4h1.4
			v-1.5h-1.4V6.5h1.4V5h-1.4V3.3c0-0.4-0.4-0.8-0.8-0.8c-0.4,0-0.8,0.3-0.8,0.8V5h-8.2v1.5h8.2v4.4h-1.5v1.5h1.5v4.4h-1.5v1.5h1.5
			v3.5h-19v-3.5h8.1v-1.5H7.7v-4.4h1.4v-1.5H7.7V6.5h1.4V5H7.7V3.3c0-0.4-0.4-0.8-0.8-0.8c-0.4,0-0.8,0.3-0.8,0.8V5H4.7v1.5h1.4v4.4
			H4.7v1.5h1.4v4.4H4.7v1.5h1.4v3.5H4.7z"/>
		<path class="st1" d="M17.9,19.1c-0.5,0-0.9-0.3-0.9-0.7v-1.9c0-0.4,0.4-0.7,0.9-0.7c0.5,0,0.9,0.3,0.9,0.7v1.9
			C18.7,18.8,18.3,19.1,17.9,19.1z"/>
		<path class="st1" d="M20.8,19.1c-0.5,0-0.9-0.3-0.9-0.7v-1.9c0-0.4,0.4-0.7,0.9-0.7c0.5,0,0.9,0.3,0.9,0.7v1.9
			C21.7,18.8,21.3,19.1,20.8,19.1z"/>
		<path class="st1" d="M23.4,19.1c-0.5,0-0.9-0.3-0.9-0.7v-1.9c0-0.4,0.4-0.7,0.9-0.7c0.5,0,0.9,0.3,0.9,0.7v1.9
			C24.2,18.8,23.8,19.1,23.4,19.1z"/>
		<path class="st1" d="M11.1,13.6c-0.5,0-0.9-0.3-0.9-0.7v-1.9c0-0.4,0.4-0.7,0.9-0.7c0.5,0,0.8,0.3,0.8,0.7v1.9
			C11.9,13.3,11.5,13.6,11.1,13.6z"/>
		<path class="st1" d="M14,13.6c-0.5,0-0.9-0.3-0.9-0.7v-1.9c0-0.4,0.4-0.7,0.9-0.7c0.5,0,0.8,0.3,0.8,0.7v1.9
			C14.9,13.3,14.5,13.6,14,13.6z"/>
	</g>
</g>
</svg>
