<?xml version="1.0" encoding="utf-8"?>
<!-- Generator: Adobe Illustrator 23.0.1, SVG Export Plug-In . SVG Version: 6.00 Build 0)  -->
<svg version="1.1" id="Layer_1" xmlns="http://www.w3.org/2000/svg" xmlns:xlink="http://www.w3.org/1999/xlink" x="0px" y="0px"
	 viewBox="0 0 34 34" style="enable-background:new 0 0 34 34;" xml:space="preserve">
<style type="text/css">
	.st0{opacity:1.000000e-02;fill-rule:evenodd;clip-rule:evenodd;fill:#D8D8D8;enable-background:new    ;}
	.st1{fill-rule:evenodd;clip-rule:evenodd;fill:#0E54B1;}
</style>
<g>
	<path class="st0" d="M0,0h34v34H0V0z"/>
	<g>
		<path class="st1" d="M8.7,19l4.1,4.1l-4.5,1.5L7,23.4L8.7,19z M24.2,11.8L13.9,22.1l-1.5-1.5l10.4-10.4l-1.1-1.1L11.3,19.5
			l-1.7-1.7L20,7.4l-1.1-1.1L7.6,17.6c-0.1,0.1-0.1,0.2-0.2,0.3l-3.2,8.4c-0.1,0.3,0,0.6,0.2,0.8c0.1,0.2,0.4,0.2,0.6,0.2
			c0.1,0,0.2,0,0.2,0l8.3-2.8c0.1,0,0.2-0.1,0.3-0.2l11.4-11.4L24.2,11.8z"/>
		<path class="st1" d="M28,8.1l-1.2,1.2L22.4,5l1.2-1.2c0.1-0.1,0.1-0.1,0.2-0.1c0,0,0.1,0,0.2,0.1l4,4C28,7.8,28,7.9,28,7.9
			C28,8,28,8,28,8.1z M29.1,6.7l-4-4c-0.3-0.3-0.8-0.5-1.3-0.5c-0.5,0-0.9,0.2-1.3,0.5l-1.2,1.2l0,0L20.2,5l6.5,6.5l1.1-1.1l0,0
			l1.2-1.2C29.8,8.5,29.8,7.3,29.1,6.7z"/>
	</g>
</g>
</svg>
