<?xml version="1.0" encoding="utf-8"?>
<!-- Generator: Adobe Illustrator 23.0.1, SVG Export Plug-In . SVG Version: 6.00 Build 0)  -->
<svg version="1.1" id="Layer_1" xmlns="http://www.w3.org/2000/svg" xmlns:xlink="http://www.w3.org/1999/xlink" x="0px" y="0px"
	 viewBox="0 0 35 34" style="enable-background:new 0 0 35 34;" xml:space="preserve">
<style type="text/css">
	.st0{opacity:1.000000e-02;fill-rule:evenodd;clip-rule:evenodd;fill:#D8D8D8;enable-background:new    ;}
	.st1{fill-rule:evenodd;clip-rule:evenodd;fill:#0E54B1;}
</style>
<g>
	<path class="st0" d="M0,0h34.6v34H0V0z"/>
	<g>
		<path class="st1" d="M28.9,16.2l-1.5,0.6l0,0.1c0,5.9-4.8,10.7-10.8,10.7c-4.2,0-7.8-2.4-9.6-5.8c2.1-0.5,4.8-1.4,8.5-2.8
			c0.4-0.2,0.6-0.6,0.4-1c-0.2-0.4-0.6-0.6-1-0.4c-3.8,1.5-6.6,2.3-8.5,2.8c-0.4-1.1-0.6-2.3-0.6-3.5c0-5.9,4.8-10.7,10.8-10.7
			c2.5,0,4.7,0.8,6.6,2.2c1.3,0.5,2.6,0.9,3.2,1.1l0,0c-2.3-2.9-5.8-4.8-9.8-4.8c-6.8,0-12.3,5.5-12.3,12.2c0,1.3,0.2,2.6,0.6,3.8
			c-2.9,0.6-3.3,0-3.3,0c-0.2-0.3,0.4-1.4,1.1-2.2c0.3-0.3,0.3-0.8,0-1.1c-0.3-0.3-0.8-0.3-1.1,0c-0.4,0.4-2.3,2.6-1.3,4.1
			c0.3,0.5,1,0.9,2.4,0.9c0.7,0,1.6-0.1,2.8-0.3c2,4.1,6.2,6.9,11.1,6.9c6.8,0,12.3-5.5,12.3-12.2C29,16.6,28.9,16.4,28.9,16.2z"/>
		<path class="st1" d="M17,14.6l1.7,1.5c0.2,0.2,0.6,0.2,0.9,0.2c0.7,0,1.5-0.3,1.5-0.3l11.7-4.7c0.3-0.1,0.4-0.3,0.4-0.4
			c0-0.1,0-0.2-0.1-0.2c-0.2-0.1-0.4-0.2-0.7-0.2c-0.7,0-1.3,0.3-1.3,0.3L27,12.5c-0.1,0-0.1,0-0.2,0c-0.1,0-0.1,0-0.2,0
			c-1.2,0-4.6-1.3-5.2-1.6c-0.3-0.1-0.6-0.2-1-0.2l2.5,2.1c0.2,0.2,0.3,0.4,0.3,0.7c0,0.3-0.2,0.5-0.5,0.6l-1.8,0.8
			c-0.5,0.2-1,0.3-1.6,0.3c-0.5,0-0.9-0.1-0.9-0.1L17,14.6z M19.5,17.9c-0.8,0-1.4-0.2-1.9-0.6l-3-2.6c-0.2-0.2-0.3-0.4-0.3-0.6
			c0-0.2,0.1-0.4,0.3-0.6c0.1,0,0.7-0.4,1.6-0.4c0.3,0,0.7,0.1,1,0.2l1.5,0.5c0,0,0.2,0.1,0.5,0.1c0.3,0,0.7-0.1,1-0.2l0.7-0.3
			l-2.9-2.4c-0.2-0.2-0.3-0.4-0.3-0.7c0-0.3,0.2-0.5,0.5-0.6c0.1,0,0.8-0.3,1.7-0.3c0.7,0,1.3,0.1,1.9,0.4c1.5,0.6,3.9,1.4,4.6,1.5
			l3.8-1.5c0.1,0,0.9-0.4,1.9-0.4c0.8,0,1.4,0.2,1.9,0.7l0.1,0.1c0.1,0.1,0.6,0.7,0.4,1.6c-0.1,0.4-0.4,1-1.3,1.4l-11.7,4.7
			C21.5,17.5,20.6,17.9,19.5,17.9z"/>
	</g>
</g>
</svg>
