<?xml version="1.0" encoding="utf-8"?>
<!-- Generator: Adobe Illustrator 23.0.1, SVG Export Plug-In . SVG Version: 6.00 Build 0)  -->
<svg version="1.1" id="Layer_1" xmlns="http://www.w3.org/2000/svg" xmlns:xlink="http://www.w3.org/1999/xlink" x="0px" y="0px"
	 viewBox="0 0 34 34" style="enable-background:new 0 0 34 34;" xml:space="preserve">
<style type="text/css">
	.st0{opacity:1.000000e-02;fill-rule:evenodd;clip-rule:evenodd;fill:#D8D8D8;enable-background:new    ;}
	.st1{fill-rule:evenodd;clip-rule:evenodd;fill:#0E54B1;}
</style>
<g>
	<path class="st0" d="M0,0h34v34H0V0z"/>
	<g>
		<path class="st1" d="M31.3,17.4C25.8,6.9,20.4,6.8,19.5,6.8c0,0-0.1,0-0.2,0H5.4C4.1,6.8,3,7.9,3,9.2v12.4c0,1.3,1.1,2.4,2.4,2.4
			h0.1c0-0.2-0.1-0.5-0.1-0.7c0-0.3,0-0.5,0.1-0.8H5.4c-0.5,0-1-0.4-1-1V9.2c0-0.5,0.4-1,1-1h13.9c0.1,0,0.1,0,0.3,0
			c0.1,0,4-0.3,8.5,6.7H22c-1.3,0-1.4-1.2-1.4-1.5v-2.8c0-0.4-0.3-0.7-0.7-0.7c-0.4,0-0.7,0.3-0.7,0.7v2.8c0,1.2,0.8,3,2.9,3h7
			c0.3,0.5,0.6,1,0.8,1.5l0,3.7c0,0.5-0.4,0.9-0.8,0.9c0,0.3,0.1,0.5,0.1,0.8c0,0.2,0,0.5-0.1,0.7c1.3-0.1,2.3-1.1,2.3-2.4V18
			c0-0.1,0-0.1,0-0.2C31.3,17.7,31.3,17.5,31.3,17.4z"/>
		<path class="st1" d="M24.3,25.3c-1.1,0-2-0.9-2-2c0-1.1,0.9-2,2-2s2,0.9,2,2C26.3,24.4,25.4,25.3,24.3,25.3z M10.2,25.3
			c-1.1,0-2-0.9-2-2c0-1.1,0.9-2,2-2c1.1,0,2,0.9,2,2C12.2,24.4,11.3,25.3,10.2,25.3z M20.9,22.6h-7.3c-0.3-1.5-1.7-2.7-3.4-2.7
			c-1.9,0-3.5,1.6-3.5,3.5c0,1.9,1.6,3.5,3.5,3.5c1.7,0,3.1-1.2,3.4-2.7h7.3c0.3,1.6,1.7,2.7,3.4,2.7c1.9,0,3.5-1.6,3.5-3.5
			c0-1.9-1.6-3.5-3.5-3.5C22.7,19.9,21.3,21,20.9,22.6z"/>
	</g>
</g>
</svg>
